<mxfile host="65bd71144e">
    <diagram id="FWe_Oa8NHgNfXHNerlQt" name="Page-1">
        <mxGraphModel dx="585" dy="513" grid="1" gridSize="10" guides="1" tooltips="1" connect="1" arrows="1" fold="1" page="1" pageScale="1" pageWidth="850" pageHeight="1100" math="0" shadow="0">
            <root>
                <mxCell id="0"/>
                <mxCell id="1" parent="0"/>
                <mxCell id="3" value="calculator lol" style="strokeWidth=1;shadow=0;dashed=0;align=center;html=1;shape=mxgraph.mockup.containers.window;align=left;verticalAlign=top;spacingLeft=8;strokeColor2=#008cff;strokeColor3=#c4c4c4;fontColor=#666666;mainText=;fontSize=17;labelBackgroundColor=none;whiteSpace=wrap;" vertex="1" parent="1">
                    <mxGeometry x="150" y="50" width="300" height="400" as="geometry"/>
                </mxCell>
                <mxCell id="4" value="" style="rounded=0;whiteSpace=wrap;html=1;" vertex="1" parent="1">
                    <mxGeometry x="170" y="90" width="260" height="60" as="geometry"/>
                </mxCell>
                <mxCell id="5" value="7" style="strokeWidth=1;shadow=0;dashed=0;align=center;html=1;shape=mxgraph.mockup.buttons.button;strokeColor=default;fontColor=#000000;mainText=;buttonStyle=round;fontSize=17;fontStyle=1;fillColor=none;whiteSpace=wrap;" vertex="1" parent="1">
                    <mxGeometry x="185" y="170" width="50" height="50" as="geometry"/>
                </mxCell>
                <mxCell id="6" value="8" style="strokeWidth=1;shadow=0;dashed=0;align=center;html=1;shape=mxgraph.mockup.buttons.button;strokeColor=default;fontColor=#000000;mainText=;buttonStyle=round;fontSize=17;fontStyle=1;fillColor=none;whiteSpace=wrap;" vertex="1" parent="1">
                    <mxGeometry x="245" y="170" width="50" height="50" as="geometry"/>
                </mxCell>
                <mxCell id="7" value="9" style="strokeWidth=1;shadow=0;dashed=0;align=center;html=1;shape=mxgraph.mockup.buttons.button;strokeColor=default;fontColor=#000000;mainText=;buttonStyle=round;fontSize=17;fontStyle=1;fillColor=none;whiteSpace=wrap;" vertex="1" parent="1">
                    <mxGeometry x="305" y="170" width="50" height="50" as="geometry"/>
                </mxCell>
                <mxCell id="8" value="/" style="strokeWidth=1;shadow=0;dashed=0;align=center;html=1;shape=mxgraph.mockup.buttons.button;strokeColor=default;fontColor=#000000;mainText=;buttonStyle=round;fontSize=17;fontStyle=1;fillColor=none;whiteSpace=wrap;" vertex="1" parent="1">
                    <mxGeometry x="365" y="170" width="50" height="50" as="geometry"/>
                </mxCell>
                <mxCell id="14" value="4" style="strokeWidth=1;shadow=0;dashed=0;align=center;html=1;shape=mxgraph.mockup.buttons.button;strokeColor=default;fontColor=#000000;mainText=;buttonStyle=round;fontSize=17;fontStyle=1;fillColor=none;whiteSpace=wrap;" vertex="1" parent="1">
                    <mxGeometry x="185" y="240" width="50" height="50" as="geometry"/>
                </mxCell>
                <mxCell id="15" value="5" style="strokeWidth=1;shadow=0;dashed=0;align=center;html=1;shape=mxgraph.mockup.buttons.button;strokeColor=default;fontColor=#000000;mainText=;buttonStyle=round;fontSize=17;fontStyle=1;fillColor=none;whiteSpace=wrap;" vertex="1" parent="1">
                    <mxGeometry x="245" y="240" width="50" height="50" as="geometry"/>
                </mxCell>
                <mxCell id="16" value="6" style="strokeWidth=1;shadow=0;dashed=0;align=center;html=1;shape=mxgraph.mockup.buttons.button;strokeColor=default;fontColor=#000000;mainText=;buttonStyle=round;fontSize=17;fontStyle=1;fillColor=none;whiteSpace=wrap;" vertex="1" parent="1">
                    <mxGeometry x="305" y="240" width="50" height="50" as="geometry"/>
                </mxCell>
                <mxCell id="17" value="*" style="strokeWidth=1;shadow=0;dashed=0;align=center;html=1;shape=mxgraph.mockup.buttons.button;strokeColor=default;fontColor=#000000;mainText=;buttonStyle=round;fontSize=17;fontStyle=1;fillColor=none;whiteSpace=wrap;" vertex="1" parent="1">
                    <mxGeometry x="365" y="240" width="50" height="50" as="geometry"/>
                </mxCell>
                <mxCell id="18" value="1" style="strokeWidth=1;shadow=0;dashed=0;align=center;html=1;shape=mxgraph.mockup.buttons.button;strokeColor=default;fontColor=#000000;mainText=;buttonStyle=round;fontSize=17;fontStyle=1;fillColor=none;whiteSpace=wrap;" vertex="1" parent="1">
                    <mxGeometry x="185" y="310" width="50" height="50" as="geometry"/>
                </mxCell>
                <mxCell id="19" value="2" style="strokeWidth=1;shadow=0;dashed=0;align=center;html=1;shape=mxgraph.mockup.buttons.button;strokeColor=default;fontColor=#000000;mainText=;buttonStyle=round;fontSize=17;fontStyle=1;fillColor=none;whiteSpace=wrap;" vertex="1" parent="1">
                    <mxGeometry x="245" y="310" width="50" height="50" as="geometry"/>
                </mxCell>
                <mxCell id="20" value="3" style="strokeWidth=1;shadow=0;dashed=0;align=center;html=1;shape=mxgraph.mockup.buttons.button;strokeColor=default;fontColor=#000000;mainText=;buttonStyle=round;fontSize=17;fontStyle=1;fillColor=none;whiteSpace=wrap;" vertex="1" parent="1">
                    <mxGeometry x="305" y="310" width="50" height="50" as="geometry"/>
                </mxCell>
                <mxCell id="21" value="-" style="strokeWidth=1;shadow=0;dashed=0;align=center;html=1;shape=mxgraph.mockup.buttons.button;strokeColor=default;fontColor=#000000;mainText=;buttonStyle=round;fontSize=17;fontStyle=1;fillColor=none;whiteSpace=wrap;" vertex="1" parent="1">
                    <mxGeometry x="365" y="310" width="50" height="50" as="geometry"/>
                </mxCell>
                <mxCell id="26" value="CLR" style="strokeWidth=1;shadow=0;dashed=0;align=center;html=1;shape=mxgraph.mockup.buttons.button;strokeColor=default;fontColor=#000000;mainText=;buttonStyle=round;fontSize=17;fontStyle=1;fillColor=none;whiteSpace=wrap;" vertex="1" parent="1">
                    <mxGeometry x="185" y="380" width="50" height="50" as="geometry"/>
                </mxCell>
                <mxCell id="27" value="0" style="strokeWidth=1;shadow=0;dashed=0;align=center;html=1;shape=mxgraph.mockup.buttons.button;strokeColor=default;fontColor=#000000;mainText=;buttonStyle=round;fontSize=17;fontStyle=1;fillColor=none;whiteSpace=wrap;" vertex="1" parent="1">
                    <mxGeometry x="245" y="380" width="50" height="50" as="geometry"/>
                </mxCell>
                <mxCell id="28" value="=" style="strokeWidth=1;shadow=0;dashed=0;align=center;html=1;shape=mxgraph.mockup.buttons.button;strokeColor=default;fontColor=#000000;mainText=;buttonStyle=round;fontSize=17;fontStyle=1;fillColor=none;whiteSpace=wrap;" vertex="1" parent="1">
                    <mxGeometry x="305" y="380" width="50" height="50" as="geometry"/>
                </mxCell>
                <mxCell id="29" value="+" style="strokeWidth=1;shadow=0;dashed=0;align=center;html=1;shape=mxgraph.mockup.buttons.button;strokeColor=default;fontColor=#000000;mainText=;buttonStyle=round;fontSize=17;fontStyle=1;fillColor=none;whiteSpace=wrap;" vertex="1" parent="1">
                    <mxGeometry x="365" y="380" width="50" height="50" as="geometry"/>
                </mxCell>
            </root>
        </mxGraphModel>
    </diagram>
</mxfile>